<svg width="199" height="131" viewBox="0 0 199 131" fill="none" xmlns="http://www.w3.org/2000/svg">
<path d="M76.1801 57.4914C72.4856 56.2561 86.032 37.8593 86.032 37.8593C115.207 4.83922 174.699 24.1382 175.931 29.0794C177.162 34.0206 159.283 27.8441 158.052 34.0206C156.82 40.197 165.44 53.9183 172.829 53.9183C180.218 53.9183 176.433 35.5868 185.783 37.8593C195.132 40.1318 208.861 67.6827 186.376 95.7858C167.735 91.4853 162.201 99.9669 159.283 109.374C108.152 128.159 69.1607 82.817 74.3101 71.0797C79.4596 59.3424 84.8005 81.095 93.421 76.1537C102.041 71.2125 101.892 55.1536 93.421 53.9183C84.9496 52.683 79.8746 58.7267 76.1801 57.4914Z" stroke="#1E1E1E" stroke-width="0.5"/>
<circle cx="179.594" cy="113.875" r="16.0179" stroke="#1E1E1E" stroke-width="0.5"/>
<path d="M71.857 58.056C69.5878 53.6876 71.857 49.2247 71.857 49.2247C71.857 49.2247 78.3213 28.0591 73.0851 16.4229C62.6204 -6.83227 24.1881 -4.07292 9.22467 16.4229C-1.9979 31.7948 -2.42334 50.5915 9.22467 65.6256C23.8594 84.5147 51.558 81.3369 69.4007 65.6256C77.9973 58.056 84.1378 71.9337 90.2782 71.9337C96.4185 71.9337 97.6469 58.056 91.5063 56.7944C85.3658 55.5328 75.8003 65.6472 71.857 58.056Z" fill="#D3B17D"/>
</svg>
