<svg width="32" height="32" viewBox="0 0 32 32" fill="none" xmlns="http://www.w3.org/2000/svg">
<path d="M16.0003 2.66699C8.64833 2.66699 2.66699 8.64833 2.66699 16.0003C2.66699 23.3523 8.64833 29.3337 16.0003 29.3337C23.3523 29.3337 29.3337 23.3523 29.3337 16.0003C29.3337 8.64833 23.3523 2.66699 16.0003 2.66699ZM5.33366 16.0003C5.33366 13.539 6.17899 11.2777 7.58433 9.47099L22.5297 24.4163C20.6655 25.8744 18.367 26.6667 16.0003 26.667C10.119 26.667 5.33366 21.8817 5.33366 16.0003ZM24.4163 22.5297L9.47099 7.58433C11.3352 6.12624 13.6337 5.33394 16.0003 5.33366C21.8817 5.33366 26.667 10.119 26.667 16.0003C26.6667 18.367 25.8744 20.6655 24.4163 22.5297Z" fill="black"/>
</svg>
