<svg width="34" height="36" viewBox="0 0 34 36" fill="none" xmlns="http://www.w3.org/2000/svg">
<rect x="0.5" y="3.75781" width="32.1035" height="31.7419" rx="1.5" stroke="#070707"/>
<rect x="5.06592" y="8.27441" width="5.849" height="5.77419" rx="1.5" stroke="#070707"/>
<rect x="14.1982" y="8.27441" width="5.849" height="5.77419" rx="1.5" stroke="#070707"/>
<rect x="23.3301" y="8.27441" width="5.849" height="5.77419" rx="1.5" stroke="#070707"/>
<rect x="5.06592" y="17.3066" width="5.849" height="5.77419" rx="1.5" stroke="#070707"/>
<rect x="14.1982" y="17.3066" width="5.849" height="5.77419" rx="1.5" stroke="#070707"/>
<rect x="23.3301" y="17.3066" width="5.849" height="5.77419" rx="1.5" stroke="#070707"/>
<rect x="5.06592" y="26.3389" width="5.849" height="5.77419" rx="1.5" stroke="#070707"/>
<rect x="14.1982" y="26.3389" width="5.849" height="5.77419" rx="1.5" stroke="#070707"/>
<rect x="23.3301" y="26.3389" width="5.849" height="5.77419" rx="1.5" stroke="#070707"/>
<path d="M6.77783 0.999622C6.77783 0.72348 6.55397 0.499622 6.27783 0.499622C6.00169 0.499622 5.77783 0.72348 5.77783 0.999622H6.77783ZM6.77783 4.38672V0.999622H5.77783V4.38672H6.77783Z" fill="#070707"/>
<path d="M11.915 0.999622C11.915 0.72348 11.6912 0.499622 11.415 0.499622C11.1389 0.499622 10.915 0.72348 10.915 0.999622H11.915ZM11.915 4.38672V0.999622H10.915V4.38672H11.915Z" fill="#070707"/>
<path d="M16.4814 0.999622C16.4814 0.72348 16.2576 0.499622 15.9814 0.499622C15.7053 0.499622 15.4814 0.72348 15.4814 0.999622H16.4814ZM16.4814 4.38672V0.999622H15.4814V4.38672H16.4814Z" fill="#070707"/>
<path d="M21.0474 0.999622C21.0474 0.72348 20.8235 0.499622 20.5474 0.499622C20.2712 0.499622 20.0474 0.72348 20.0474 0.999622H21.0474ZM21.0474 4.38672V0.999622H20.0474V4.38672H21.0474Z" fill="#070707"/>
<path d="M25.6123 0.999622C25.6123 0.72348 25.3884 0.499622 25.1123 0.499622C24.8362 0.499622 24.6123 0.72348 24.6123 0.999622H25.6123ZM25.6123 4.38672V0.999622H24.6123V4.38672H25.6123Z" fill="#070707"/>
</svg>
