<svg width="356" height="47" viewBox="0 0 356 47" fill="none" xmlns="http://www.w3.org/2000/svg">
<path d="M48.9844 22.6438C48.6857 20.5958 47.5124 18.7185 45.4644 17.0118C43.459 15.2625 40.8563 13.8972 37.6563 12.9159C34.4563 11.9346 30.979 11.444 27.2243 11.444L23.7683 11.4441C19.459 11.4441 15.491 12.1055 11.8643 13.4282C8.28033 14.7509 5.63502 16.479 3.92838 18.6123L0.984375 18.0364C1.83767 14.495 3.39496 11.3803 5.65626 8.6923C7.96023 6.00427 10.7122 3.93491 13.9122 2.4842C17.1548 0.990828 20.5255 0.24412 24.0242 0.244077L27.0322 0.24404C31.2135 0.243989 35.1175 1.26794 38.7442 3.3159C42.3709 5.36385 45.2723 8.17982 47.4483 11.7638C49.6243 15.3478 50.7124 19.3798 50.7124 23.8598C50.7125 28.1264 49.7099 32.0304 47.7046 35.5718C45.6993 39.0705 42.8833 41.8438 39.2567 43.8919C35.6727 45.8973 31.5981 46.9 27.0327 46.9L23.9607 46.9001C20.9314 46.9001 17.7954 46.1322 14.5527 44.5962C11.31 43.0602 8.45132 40.9269 5.97662 38.1963C3.50192 35.4657 1.83788 32.4363 0.98451 29.1084L3.9285 28.5323C5.6352 30.6656 8.28055 32.3936 11.8646 33.7162C15.4913 35.0389 19.4593 35.7001 23.7686 35.7001L27.2246 35.7C30.9793 35.7 34.4566 35.2093 37.6566 34.2279C40.8566 33.2465 43.4592 31.9025 45.4645 30.1958C47.5125 28.4465 48.6858 26.5478 48.9845 24.4998L11.2885 24.5002L11.2884 22.6442L48.9844 22.6438Z" fill="#D3B17D"/>
<path d="M61.1906 39.0916C60.124 44.3396 57.3081 46.9637 52.7427 46.9637C51.4201 46.9637 50.2467 46.5158 49.2227 45.6198C48.2414 44.6811 47.7507 43.5505 47.7507 42.2278C47.7507 40.9478 48.1986 39.8598 49.0946 38.9638C50.0333 38.0678 51.1639 37.6197 52.4866 37.6197C53.8093 37.6197 54.8973 38.089 55.7506 39.0277C56.604 39.9663 57.0307 41.0757 57.0307 42.3557C57.0307 42.825 56.9667 43.2517 56.8387 43.6357C57.5213 43.1663 58.076 42.3983 58.5027 41.3317C58.972 40.265 59.3773 38.8356 59.7186 37.0436L67.0782 1.26755L99.7182 1.26715L99.7187 46.0032L97.8627 46.0032L97.8623 12.4672L66.6943 12.4676L61.1906 39.0916Z" fill="#D3B17D"/>
<path d="M151.722 1.20252L151.723 46.0025L149.803 46.0025L149.802 6.64254L116.011 46.003L104.811 46.0031L104.81 1.20309L106.666 1.20307L106.667 40.5631L140.522 1.20265L151.722 1.20252Z" fill="#D3B17D"/>
<path d="M197.257 23.346C198.964 23.9433 200.201 24.6686 200.969 25.5219C201.737 26.3752 202.121 27.5059 202.121 28.9139C202.121 31.3886 201.374 34.0339 199.881 36.8499C198.43 39.6233 196.063 41.9913 192.777 43.954C189.492 45.9167 185.311 46.8981 180.233 46.8982L178.441 46.8982C174.815 46.8982 171.337 46.1729 168.009 44.7223C164.681 43.229 161.822 41.1597 159.433 38.5144C157.086 35.8265 155.486 32.7758 154.633 29.3625L157.385 28.6584C159.902 30.6211 162.953 32.285 166.537 33.6503C170.121 35.0156 173.918 35.6982 177.929 35.6982L181.129 35.6982C183.518 35.6981 186.206 35.4208 189.193 34.8661C192.222 34.3114 194.804 33.5007 196.937 32.434C199.113 31.3673 200.201 30.0873 200.201 28.5939C200.201 27.3566 199.454 26.3753 197.961 25.65C196.468 24.882 194.569 24.498 192.265 24.498L164.937 24.4984L164.937 22.6424L190.921 22.642C193.225 22.642 195.102 22.2793 196.553 21.554C198.046 20.786 198.793 19.7619 198.793 18.4819C198.793 17.0313 197.812 15.7726 195.849 14.706C193.929 13.6393 191.582 12.8287 188.809 12.2741C186.035 11.7194 183.475 11.4421 181.129 11.4422L178.121 11.4422C173.982 11.4422 170.334 11.9116 167.177 12.8503C164.062 13.7464 161.289 15.1544 158.857 17.0744L156.105 16.4345C157.854 11.3998 160.691 7.45307 164.617 4.59436C168.542 1.69298 173.235 0.242254 178.697 0.242188C183.134 0.242133 187.017 1.15942 190.345 2.99404C193.673 4.786 196.211 7.04731 197.961 9.77795C199.753 12.5086 200.649 15.1753 200.649 17.7779C200.649 19.2286 200.35 20.3806 199.753 21.2339C199.198 22.0873 198.366 22.7913 197.257 23.346Z" fill="#D3B17D"/>
<path d="M252.847 1.20128L252.848 46.0013L250.928 46.0013L250.927 6.64131L217.136 46.0017L205.936 46.0019L205.935 1.20185L207.791 1.20183L207.792 40.5618L241.647 1.20142L252.847 1.20128Z" fill="#D3B17D"/>
<path d="M255.758 1.26524L257.998 1.26522L274.382 27.057L290.19 1.20082L302.606 1.20067L275.278 46.001L262.734 46.0012L273.23 28.849L255.758 1.26524Z" fill="#D3B17D"/>
<path d="M319.285 7.21647L295.606 46.0008L283.126 46.0009L310.581 1.20058L321.141 1.20045L321.142 39.7924L344.821 1.20016L355.381 1.20003L355.382 46L353.526 46.0001L353.525 7.21605L329.846 46.0003L319.286 46.0005L319.285 7.21647Z" fill="#D3B17D"/>
</svg>
