<svg width="39" height="39" viewBox="0 0 39 39" fill="none" xmlns="http://www.w3.org/2000/svg">
<circle cx="19.5" cy="19.5" r="19.5" fill="#D3B17D"/>
<path d="M28.8989 24.9722L28.8999 24.9729C29.2953 25.3212 29.4998 25.7718 29.5 26.2218C29.5002 26.6784 29.2902 27.1352 28.8833 27.4861L28.8706 27.4971L28.8586 27.5089L28.0761 28.2812C26.4528 29.5997 24.2103 29.7868 21.7604 29.1392C19.3066 28.4905 16.7271 27.021 14.5618 25.169C12.3932 23.3143 10.6856 21.1152 9.92705 19.0427C9.17771 16.9954 9.36937 15.148 10.8486 13.7867L11.8355 13.0504L11.8457 13.0428L11.8554 13.0347C12.2684 12.6928 12.8358 12.4945 13.4367 12.5001C14.029 12.5056 14.583 12.7086 14.9849 13.0483L14.9854 13.0488L15.0386 13.107C15.085 13.1578 15.1501 13.2296 15.2279 13.3158C15.3835 13.4879 15.5886 13.7155 15.793 13.9426C15.9973 14.1696 16.2008 14.3959 16.3532 14.5655L16.5372 14.7703L16.5887 14.8276L16.6022 14.8427L16.6057 14.8465L16.6066 14.8475L16.6068 14.8478L16.6069 14.8478L16.9789 14.5137L16.6069 14.8478L16.6246 14.8676L16.6443 14.8853C17.0302 15.2328 17.2286 15.6775 17.228 16.1217C17.2274 16.566 17.0278 17.0104 16.6408 17.3573L16.6289 17.3679L16.6178 17.3792L15.2154 18.8068L14.9693 19.0572L15.1214 19.3737C15.7154 20.6101 16.5861 21.7282 17.6789 22.666C18.7717 23.6038 20.0659 24.3438 21.4855 24.8467L21.7331 24.9344L21.9459 24.7803L23.6112 23.5736L23.6236 23.5647L23.6353 23.555C24.0443 23.219 24.602 23.0218 25.1944 23.021C25.7868 23.0201 26.3454 23.2157 26.7558 23.5508L26.7755 23.5668L26.7967 23.5808L27.072 23.1634L26.7968 23.5809L26.7968 23.5809L26.7971 23.5811L26.7983 23.5818L26.8028 23.5848L26.8204 23.5964L26.8874 23.6406L27.1267 23.7985C27.3248 23.9293 27.5893 24.1039 27.8545 24.2792C28.1198 24.4546 28.3857 24.6305 28.5868 24.764C28.6874 24.8307 28.7713 24.8866 28.8307 24.9264L28.8989 24.9722ZM28.914 24.9825C28.9228 24.9886 28.9209 24.9876 28.9135 24.9822L28.914 24.9825ZM14.9738 13.0364L14.9744 13.037C14.9682 13.0308 14.9669 13.0291 14.9738 13.0364Z" fill="#F0EEEE" stroke="#F0EEEE"/>
</svg>
