<svg width="39" height="39" viewBox="0 0 39 39" fill="none" xmlns="http://www.w3.org/2000/svg">
<path fill-rule="evenodd" clip-rule="evenodd" d="M19.5 0C8.73112 0 0 8.73112 0 19.5C0 30.2689 8.73112 39 19.5 39C30.2689 39 39 30.2689 39 19.5C39 8.73112 30.2689 0 19.5 0ZM28.5382 13.2616C28.2458 16.3442 26.975 23.8274 26.3299 27.2805C26.0569 28.743 25.5174 29.2321 24.9974 29.2792C23.8647 29.3832 23.0051 28.5301 21.9083 27.8119C20.1923 26.6874 19.2221 25.987 17.5565 24.8885C15.6309 23.6194 16.8789 22.9223 17.9757 21.7831C18.2634 21.4841 23.2521 16.9455 23.3496 16.5344C23.361 16.4824 23.374 16.2906 23.2586 16.1899C23.1432 16.0891 22.9759 16.1233 22.8556 16.1509C22.6834 16.1899 19.942 18.0018 14.6299 21.5865C13.8515 22.1211 13.1463 22.3811 12.5141 22.3681C11.8186 22.3535 10.4796 21.9749 9.4835 21.6499C8.26312 21.2534 7.29138 21.0421 7.37587 20.3694C7.41975 20.0184 7.90238 19.6593 8.82538 19.292C14.5096 16.8155 18.3007 15.1824 20.1971 14.3926C25.6132 12.1404 26.7377 11.7487 27.4722 11.7358C28.392 11.7228 28.613 12.4816 28.5382 13.2616Z" fill="#D3B17D"/>
</svg>
