<svg width="39" height="39" viewBox="0 0 39 39" fill="none" xmlns="http://www.w3.org/2000/svg">
<circle cx="19.5" cy="19.5" r="19.5" fill="#D3B17D"/>
<path d="M7.13152 12.7943C6.19444 12.7524 5.46208 12.7522 4.942 12.8242C4.14436 12.9346 4.18588 13.8133 4.54567 14.5337C6.4813 18.4095 7.86177 20.8757 10.9194 24.9147C13.0293 27.2233 14.8643 29.1485 19.5272 28.3992C20.4847 28.2453 21.1411 27.3811 21.1411 26.4113C21.1411 26.2528 21.1147 26.0937 21.132 25.9361C21.2379 24.9712 22.8658 23.2012 24.9153 26.1727C25.591 27.3162 25.7652 28.0393 28.0605 28.5316C29.2842 28.7506 29.9247 28.6997 31.0484 28.5316C32.9595 28.1464 33.6525 27.8058 33.4822 27.1358C33.3939 26.7884 33.1265 26.521 32.8727 26.2673L32.8645 26.259L31.0484 24.4429C28.8006 21.9611 28.7406 20.6697 31.0484 17.9953C33.3562 15.321 33.879 13.4348 33.7218 12.9631C33.5645 12.4913 27.8761 12.5231 27.1169 12.9631C26.4167 13.3689 25.9157 14.5348 25.1222 16.4067C24.9849 16.7306 24.8133 17.0417 24.6074 17.327C21.8889 21.0956 21.2668 20.5372 21.1411 16.8945V14.8422C21.1411 13.6677 20.564 12.5074 19.4257 12.2184C17.9705 11.8489 16.3034 11.9576 14.9253 12.4733C14.4386 12.6553 14.5934 13.4181 15.0608 13.6452C15.3244 13.7734 15.337 13.9434 15.3585 14.2343L15.3589 14.2394L15.5918 17.3835C15.6219 17.7899 15.6079 18.2016 15.5195 18.5994C14.984 21.0072 14.1866 20.2388 12.6492 17.9953L11.1379 15.3087C10.3142 13.8443 8.81002 12.8694 7.13152 12.7943Z" fill="#EBEAEA"/>
</svg>
